<svg version="1.1" id="Layer_1" xmlns="http://www.w3.org/2000/svg" xmlns:xlink="http://www.w3.org/1999/xlink" x="0px" y="0px"
	 width="100%" viewBox="0 0 460 144" enable-background="new 0 0 460 144" xml:space="preserve">
<path fill="#334459" opacity="1.000000" stroke="none" 
	d="
M460.000000,145.000000 
	C307.062561,145.000000 154.125137,145.000000 1.093853,145.000000 
	C1.093853,97.082359 1.093853,49.164478 1.093853,1.000000 
	C153.688599,1.000000 306.377319,1.000000 459.534058,1.468656 
	C460.001373,49.624874 460.000671,97.312439 460.000000,145.000000 
M76.827072,32.714100 
	C76.928963,32.397385 77.114777,32.081741 77.118835,31.763775 
	C77.141891,29.961452 77.250328,28.138079 76.970589,26.378977 
	C76.930687,26.128038 74.938400,26.187574 73.849701,26.103418 
	C73.718384,27.849514 73.762146,29.631783 73.410789,31.332417 
	C72.985840,33.389252 72.828171,36.049538 71.484184,37.252071 
	C68.833862,39.623455 67.756256,42.127289 67.990715,45.550655 
	C68.172470,48.204494 68.339745,50.935909 67.896629,53.527374 
	C67.628746,55.094036 66.407616,57.457417 65.224106,57.723209 
	C62.006214,58.445885 61.926758,55.654938 62.139038,53.493477 
	C62.618042,48.616158 61.380013,44.822426 56.919144,42.102573 
	C53.160564,39.810913 50.237850,36.859730 53.456230,31.881241 
	C53.857929,31.259853 53.328804,29.456318 52.652317,28.881281 
	C51.973301,28.304087 50.318676,28.150782 49.555756,28.599991 
	C48.794899,29.047987 47.985722,30.732258 48.274071,31.429155 
	C50.097340,35.835667 49.970314,41.278938 55.296928,43.879642 
	C59.093559,45.733345 60.864319,49.154022 59.869160,53.410168 
	C59.498482,54.995495 58.221096,56.368824 57.357162,57.838821 
	C56.589405,56.442005 55.149422,55.027100 55.186436,53.651943 
	C55.278492,50.231853 53.907181,48.053818 51.214462,46.169914 
	C49.795944,45.177486 48.989609,43.349072 47.662319,42.174446 
	C46.663181,41.290222 45.314510,40.510166 44.041775,40.360336 
	C43.485378,40.294838 42.027592,42.138828 42.212524,42.729626 
	C42.588154,43.929638 43.619545,45.154545 44.711277,45.850693 
	C46.767902,47.162102 49.678734,47.608898 51.072948,49.346886 
	C52.394871,50.994759 52.638248,53.863445 52.483242,56.135731 
	C52.433159,56.869949 49.661350,57.778782 48.059738,57.965382 
	C45.428497,58.271942 42.735985,58.034897 40.069649,58.061306 
	C32.849724,58.132816 31.278494,59.652401 31.245926,66.919792 
	C31.190662,79.252457 31.193151,91.585625 31.240871,103.918320 
	C31.252468,106.915016 30.834337,109.298462 27.001493,109.071327 
	C23.837936,108.883858 23.044889,110.761238 23.153257,113.526794 
	C23.356928,118.724442 26.654224,121.722359 33.021072,121.741791 
	C59.186485,121.821686 85.352730,121.835159 111.517288,121.663101 
	C114.000481,121.646774 117.246887,120.855446 118.742516,119.178467 
	C120.354118,117.371468 120.569725,114.122673 120.833359,111.447586 
	C120.899872,110.772812 118.793983,109.174316 117.742477,109.222572 
	C113.332916,109.424866 113.002769,106.886024 113.027885,103.491402 
	C113.120361,90.992538 113.091858,78.492447 113.047180,65.993042 
	C113.024994,59.786415 111.477516,58.201130 105.488914,58.073360 
	C102.323715,58.005833 99.129013,58.297268 96.000328,57.950802 
	C94.302170,57.762753 91.424538,56.711277 91.331322,55.815018 
	C91.099640,53.587227 91.481628,50.598877 92.881096,49.082203 
	C94.474831,47.354984 97.490242,46.993401 99.786163,45.836639 
	C100.867233,45.291965 102.119827,44.436794 102.520630,43.417835 
	C102.795525,42.718979 101.981026,41.082565 101.204704,40.622429 
	C100.428513,40.162365 98.436745,40.239338 98.106323,40.775875 
	C94.902367,45.978359 86.446587,47.740417 87.956993,56.082340 
	C88.035126,56.513897 87.033508,57.140949 86.455986,57.761440 
	C83.665253,52.746666 83.980675,47.776466 87.739624,45.174126 
	C92.343613,41.986763 95.558769,38.156162 96.000900,32.463303 
	C96.100815,31.176895 95.824799,29.634586 95.129929,28.612473 
	C94.801399,28.129236 92.623383,28.170429 92.092445,28.734966 
	C91.354736,29.519379 90.742134,31.374859 91.178658,32.154247 
	C93.852013,36.927406 91.380760,39.723660 87.695709,42.069885 
	C83.527802,44.723541 81.314285,48.226196 82.167587,53.315392 
	C82.275101,53.956627 82.353645,54.807064 82.030807,55.273422 
	C81.365738,56.234177 80.447090,57.633785 79.582787,57.670322 
	C78.709274,57.707245 77.243073,56.477287 76.951309,55.522705 
	C74.414963,47.224350 77.253387,42.231049 85.494591,39.603638 
	C86.651131,39.234917 87.664902,37.858959 88.296585,36.704102 
	C88.520302,36.295082 87.414261,34.484802 86.904541,34.480106 
	C85.592140,34.468002 83.929214,34.725117 83.013954,35.549351 
	C77.327408,40.670357 71.754028,45.949677 74.034569,54.826664 
	C74.112206,55.128864 74.100327,55.595688 73.919724,55.796627 
	C73.326424,56.456745 72.713966,57.228729 71.941833,57.530949 
	C71.661133,57.640812 70.413101,56.513588 70.449875,56.012707 
	C70.910095,49.742607 67.377762,42.600616 74.528038,37.706207 
	C75.683380,36.915375 75.995789,34.893112 76.827072,32.714100 
M370.332458,29.064404 
	C369.914246,26.942341 369.302551,24.836946 369.118011,22.694757 
	C368.731415,18.206438 366.349182,17.111929 362.282654,18.240654 
	C362.282654,36.909073 362.282654,55.481400 362.282654,74.137650 
	C364.308685,74.137650 366.035553,74.137650 368.118042,74.137650 
	C368.118042,64.588531 368.118042,55.401527 368.118042,46.214520 
	C370.450378,53.909813 372.143341,61.657513 373.727631,69.427368 
	C374.478729,73.110939 376.249268,75.127007 380.563721,74.108032 
	C380.563721,55.540871 380.563721,36.971981 380.563721,18.160534 
	C378.628815,18.160534 376.927765,18.160534 374.820740,18.160534 
	C374.820740,28.253630 374.820740,38.025284 374.820740,47.796936 
	C374.576904,47.815472 374.333069,47.834003 374.089233,47.852539 
	C372.914886,41.862247 371.740540,35.871956 370.332458,29.064404 
M261.522095,17.793207 
	C259.600525,17.943312 257.678986,18.093418 255.738129,18.245029 
	C255.738129,37.170727 255.738129,55.569027 255.738129,74.556831 
	C258.807587,74.556831 261.588593,74.604073 264.367493,74.547791 
	C272.071472,74.391777 274.006500,72.408356 274.023224,64.598473 
	C274.048187,52.951427 274.031342,41.304287 274.029541,29.657188 
	C274.027924,19.023613 272.858337,17.833517 261.522095,17.793207 
M307.992493,64.362534 
	C307.572754,67.590660 307.153046,70.818779 306.697205,74.324745 
	C309.053253,74.324745 310.820038,74.324745 312.964905,74.324745 
	C314.430695,63.511318 315.876434,52.845753 317.322174,42.180191 
	C317.800446,42.189621 318.278748,42.199051 318.757019,42.208481 
	C320.265381,52.903717 321.773743,63.598953 323.266357,74.182518 
	C325.533630,74.182518 327.265045,74.182518 329.505890,74.182518 
	C326.815002,56.206604 324.227875,38.643417 321.525116,21.098038 
	C320.964935,17.461447 318.375519,17.404179 315.163086,18.325483 
	C312.800934,33.354267 310.432343,48.423847 307.992493,64.362534 
M152.596207,71.595749 
	C154.337906,72.784485 156.079605,73.973221 158.617798,75.705582 
	C161.647720,55.450851 164.417755,36.933453 167.213989,18.240978 
	C164.903687,18.240978 163.215042,18.240978 161.438736,18.240978 
	C159.668747,29.563322 157.959763,40.495396 156.250793,51.427467 
	C153.687180,41.759254 152.154556,32.144943 150.739822,22.513319 
	C150.183701,18.727262 148.792892,16.599319 144.334915,18.558167 
	C146.996140,36.034184 149.647491,53.445335 152.596207,71.595749 
M215.071701,68.781830 
	C213.295700,68.699982 211.519684,68.618134 209.235748,68.512871 
	C209.235748,62.348106 209.114182,56.553806 209.352341,50.774326 
	C209.393265,49.781391 210.793716,48.344337 211.861252,47.982056 
	C216.062515,46.556309 216.106262,46.685204 217.153152,42.081444 
	C214.684906,41.885967 212.246994,41.692894 209.220642,41.453217 
	C209.220642,36.843880 209.377731,32.379368 209.168045,27.932150 
	C209.016083,24.709154 210.136276,23.333574 213.425873,23.538572 
	C217.038940,23.763729 219.435364,22.299927 219.706070,17.783298 
	C215.779297,17.783298 211.971909,17.987122 208.196686,17.726030 
	C204.413773,17.464411 203.310150,18.977129 203.358505,22.633938 
	C203.528168,35.463070 203.423340,48.295834 203.422836,61.127216 
	C203.422668,65.415321 203.422821,69.703430 203.422821,73.862747 
	C214.932129,76.053284 218.907593,74.969086 220.943649,69.014427 
	C219.222519,68.933647 217.607910,68.857872 215.071701,68.781830 
M437.795868,118.340256 
	C437.788574,109.698677 437.857178,101.056084 437.742798,92.415924 
	C437.683319,87.924294 435.144867,85.928009 430.681976,85.937263 
	C426.623169,85.945686 423.709473,87.259613 423.667542,91.755516 
	C423.568390,102.390015 423.573029,113.026962 423.691803,123.661179 
	C423.730469,127.124786 425.546204,129.083786 429.299347,129.239548 
	C436.199127,129.525909 437.757477,127.803902 437.795868,118.340256 
M426.864807,33.535027 
	C426.864807,30.412609 426.864807,27.290192 426.864807,24.267820 
	C430.928650,22.778271 436.791077,25.051584 436.850159,17.803680 
	C430.209015,17.803680 423.726868,17.957956 417.256378,17.749973 
	C412.870850,17.609005 412.074097,19.467215 413.348480,23.266621 
	C415.900818,23.492388 418.299988,23.704603 420.998474,23.943298 
	C420.998474,40.786762 420.998474,57.230949 420.998474,74.168831 
	C423.020111,74.258545 424.716736,74.333839 426.864807,74.429161 
	C426.864807,60.759933 426.864807,47.641846 426.864807,33.535027 
M350.132324,86.468414 
	C348.198730,86.468414 346.265137,86.468414 344.270874,86.468414 
	C344.270874,101.015831 344.270874,114.788185 344.270874,128.543503 
	C348.348114,128.832626 348.426208,128.833847 348.479309,125.430840 
	C348.553802,120.659248 348.498138,115.885612 348.498138,110.716629 
	C350.162323,110.965088 351.854736,111.013580 351.881866,111.251694 
	C352.545898,117.083473 353.033051,122.935410 353.565430,128.936737 
	C354.691223,128.882538 355.824707,128.827957 357.300568,128.756897 
	C357.300568,116.392532 357.367920,104.193184 357.261780,91.995346 
	C357.227509,88.054611 354.643158,86.520218 350.132324,86.468414 
M157.180313,124.417824 
	C157.250946,122.263550 157.499924,120.096985 157.352554,117.957726 
	C157.098969,114.276833 156.255829,110.610146 156.285858,106.942619 
	C156.325897,102.051636 157.120590,97.171059 157.292984,92.275513 
	C157.418503,88.711792 155.311722,86.734764 151.783813,86.519714 
	C149.352097,86.371483 146.904068,86.491257 144.387970,86.491257 
	C144.387970,100.992683 144.387970,114.843948 144.387970,128.963867 
	C149.088684,128.517014 154.192078,130.944611 157.180313,124.417824 
M230.711746,86.593063 
	C230.170212,87.539284 229.292984,88.433792 229.138062,89.439568 
	C227.165085,102.247688 225.292526,115.071297 223.423767,127.895248 
	C223.387878,128.141602 223.707458,128.439758 223.900879,128.784470 
	C225.141068,128.784470 226.409363,128.784470 227.941422,128.784470 
	C229.009338,121.062805 230.051926,113.524239 231.094513,105.985672 
	C231.539764,105.938522 231.985001,105.891365 232.430252,105.844208 
	C233.299011,112.282944 234.296463,118.707962 234.984848,125.165924 
	C235.355591,128.643967 236.610168,129.935226 240.321396,128.275040 
	C238.354385,115.414978 236.463287,102.610352 234.335419,89.845192 
	C234.130402,88.615303 232.454941,87.630516 230.711746,86.593063 
M388.797485,115.424614 
	C389.247437,112.081657 389.697418,108.738701 390.147369,105.395744 
	C390.553894,105.387024 390.960419,105.378311 391.366943,105.369591 
	C392.253082,112.036743 393.285034,118.689079 393.964386,125.377235 
	C394.307587,128.756149 395.649750,129.736450 399.230927,128.436691 
	C398.505096,123.545837 397.795776,118.653336 397.049957,113.766403 
	C395.819641,105.704758 394.671478,97.627373 393.204620,89.608589 
	C392.991486,88.443451 391.205994,87.565956 390.148071,86.555359 
	C389.449219,87.513947 388.287170,88.399162 388.121918,89.442284 
	C386.069946,102.396164 384.162994,115.373024 382.165649,128.698029 
	C383.882019,128.698029 385.268890,128.698029 386.884491,128.698029 
	C387.487488,124.486847 388.073853,120.391869 388.797485,115.424614 
M184.768784,92.737625 
	C184.769333,103.548019 184.821106,114.358795 184.738281,125.168556 
	C184.714340,128.292252 185.349594,130.016342 189.218765,128.200211 
	C189.218765,122.101799 189.218765,116.000847 189.218765,110.040115 
	C193.455185,108.751778 195.188217,109.893585 194.948318,114.163017 
	C194.680084,118.936432 194.886765,123.736534 194.886765,128.525024 
	C195.362747,128.823639 195.838715,129.122269 196.314697,129.420898 
	C197.247345,128.362915 198.974182,127.317459 198.991135,126.245010 
	C199.182877,114.107140 199.192719,101.963799 198.988800,89.826324 
	C198.968460,88.615395 197.220917,87.433472 196.275009,86.238091 
	C195.777176,86.577942 195.279358,86.917786 194.781525,87.257637 
	C194.781525,93.024803 194.781525,98.791962 194.781525,104.735336 
	C192.795441,104.735336 191.218124,104.735336 189.017212,104.735336 
	C189.017212,98.617256 189.017212,92.732567 189.017212,86.833168 
	C183.810837,86.039932 184.975677,89.427345 184.768784,92.737625 
M304.868500,99.515732 
	C304.868500,109.250198 304.868500,118.984657 304.868500,128.634903 
	C315.799561,129.712891 316.403107,129.512909 317.375458,124.655205 
	C314.770996,124.492462 312.185974,124.330925 309.401855,124.156952 
	C309.401855,118.936028 309.401855,114.175270 309.401855,110.334450 
	C311.837921,108.651680 313.705048,107.361931 315.572144,106.072182 
	C315.361298,105.671547 315.150452,105.270912 314.939636,104.870277 
	C313.088593,104.531334 311.237549,104.192398 309.501953,103.874596 
	C309.501953,99.426628 309.501953,95.347992 309.501953,91.218643 
	C312.471924,90.453865 316.482452,91.741646 316.702332,86.788773 
	C312.779968,86.788773 309.050018,86.788773 304.868317,86.788773 
	C304.868317,90.929916 304.868317,94.726562 304.868500,99.515732 
M279.490601,124.711403 
	C276.745575,124.476959 274.000549,124.242516 270.813049,123.970284 
	C270.813049,112.538742 270.899750,101.443108 270.697021,90.352760 
	C270.673218,89.050941 269.056213,87.778252 268.177765,86.492065 
	C267.493225,87.733833 266.229614,88.968422 266.214081,90.218491 
	C266.065704,102.172615 266.115570,114.129410 266.155762,126.085274 
	C266.158844,127.005882 266.520294,127.925293 266.759033,129.052200 
	C269.795319,129.052200 272.702606,129.481155 275.388763,128.895523 
	C277.069977,128.528976 278.418213,126.635071 279.490601,124.711403 
z"/>
<path fill="#788290" opacity="1.000000" stroke="none" 
	d="
M460.500000,145.000000 
	C460.000671,97.312439 460.001373,49.624874 460.001038,1.468656 
	C460.333344,2.333332 460.956604,3.666353 460.958038,5.000044 
	C461.008270,51.666660 461.000000,98.333336 460.500000,145.000000 
z"/>
<path fill="#5F821E" opacity="1.000000" stroke="none" 
	d="
M76.762451,33.077087 
	C75.995789,34.893112 75.683380,36.915375 74.528038,37.706207 
	C67.377762,42.600616 70.910095,49.742607 70.449875,56.012707 
	C70.413101,56.513588 71.661133,57.640812 71.941833,57.530949 
	C72.713966,57.228729 73.326424,56.456745 73.919724,55.796627 
	C74.100327,55.595688 74.112206,55.128864 74.034569,54.826664 
	C71.754028,45.949677 77.327408,40.670357 83.013954,35.549351 
	C83.929214,34.725117 85.592140,34.468002 86.904541,34.480106 
	C87.414261,34.484802 88.520302,36.295082 88.296585,36.704102 
	C87.664902,37.858959 86.651131,39.234917 85.494591,39.603638 
	C77.253387,42.231049 74.414963,47.224350 76.951309,55.522705 
	C77.243073,56.477287 78.709274,57.707245 79.582787,57.670322 
	C80.447090,57.633785 81.365738,56.234177 82.030807,55.273422 
	C82.353645,54.807064 82.275101,53.956627 82.167587,53.315392 
	C81.314285,48.226196 83.527802,44.723541 87.695709,42.069885 
	C91.380760,39.723660 93.852013,36.927406 91.178658,32.154247 
	C90.742134,31.374859 91.354736,29.519379 92.092445,28.734966 
	C92.623383,28.170429 94.801399,28.129236 95.129929,28.612473 
	C95.824799,29.634586 96.100815,31.176895 96.000900,32.463303 
	C95.558769,38.156162 92.343613,41.986763 87.739624,45.174126 
	C83.980675,47.776466 83.665253,52.746666 86.455986,57.761440 
	C87.033508,57.140949 88.035126,56.513897 87.956993,56.082340 
	C86.446587,47.740417 94.902367,45.978359 98.106323,40.775875 
	C98.436745,40.239338 100.428513,40.162365 101.204704,40.622429 
	C101.981026,41.082565 102.795525,42.718979 102.520630,43.417835 
	C102.119827,44.436794 100.867233,45.291965 99.786163,45.836639 
	C97.490242,46.993401 94.474831,47.354984 92.881096,49.082203 
	C91.481628,50.598877 91.099640,53.587227 91.331322,55.815018 
	C91.424538,56.711277 94.302170,57.762753 96.000328,57.950802 
	C99.129013,58.297268 102.323715,58.005833 105.488914,58.073360 
	C111.477516,58.201130 113.024994,59.786415 113.047180,65.993042 
	C113.091858,78.492447 113.120361,90.992538 113.027885,103.491402 
	C113.002769,106.886024 113.332916,109.424866 117.742477,109.222572 
	C118.793983,109.174316 120.899872,110.772812 120.833359,111.447586 
	C120.569725,114.122673 120.354118,117.371468 118.742516,119.178467 
	C117.246887,120.855446 114.000481,121.646774 111.517288,121.663101 
	C85.352730,121.835159 59.186485,121.821686 33.021072,121.741791 
	C26.654224,121.722359 23.356928,118.724442 23.153257,113.526794 
	C23.044889,110.761238 23.837936,108.883858 27.001493,109.071327 
	C30.834337,109.298462 31.252468,106.915016 31.240871,103.918320 
	C31.193151,91.585625 31.190662,79.252457 31.245926,66.919792 
	C31.278494,59.652401 32.849724,58.132816 40.069649,58.061306 
	C42.735985,58.034897 45.428497,58.271942 48.059738,57.965382 
	C49.661350,57.778782 52.433159,56.869949 52.483242,56.135731 
	C52.638248,53.863445 52.394871,50.994759 51.072948,49.346886 
	C49.678734,47.608898 46.767902,47.162102 44.711277,45.850693 
	C43.619545,45.154545 42.588154,43.929638 42.212524,42.729626 
	C42.027592,42.138828 43.485378,40.294838 44.041775,40.360336 
	C45.314510,40.510166 46.663181,41.290222 47.662319,42.174446 
	C48.989609,43.349072 49.795944,45.177486 51.214462,46.169914 
	C53.907181,48.053818 55.278492,50.231853 55.186436,53.651943 
	C55.149422,55.027100 56.589405,56.442005 57.357162,57.838821 
	C58.221096,56.368824 59.498482,54.995495 59.869160,53.410168 
	C60.864319,49.154022 59.093559,45.733345 55.296928,43.879642 
	C49.970314,41.278938 50.097340,35.835667 48.274071,31.429155 
	C47.985722,30.732258 48.794899,29.047987 49.555756,28.599991 
	C50.318676,28.150782 51.973301,28.304087 52.652317,28.881281 
	C53.328804,29.456318 53.857929,31.259853 53.456230,31.881241 
	C50.237850,36.859730 53.160564,39.810913 56.919144,42.102573 
	C61.380013,44.822426 62.618042,48.616158 62.139038,53.493477 
	C61.926758,55.654938 62.006214,58.445885 65.224106,57.723209 
	C66.407616,57.457417 67.628746,55.094036 67.896629,53.527374 
	C68.339745,50.935909 68.172470,48.204494 67.990715,45.550655 
	C67.756256,42.127289 68.833862,39.623455 71.484184,37.252071 
	C72.828171,36.049538 72.985840,33.389252 73.410789,31.332417 
	C73.762146,29.631783 73.718384,27.849514 73.849701,26.103418 
	C74.938400,26.187574 76.930687,26.128038 76.970589,26.378977 
	C77.250328,28.138079 77.141891,29.961452 77.118835,31.763775 
	C77.114777,32.081741 76.928963,32.397385 76.762451,33.077087 
M62.500011,60.167061 
	C55.010857,60.170609 47.519276,60.290249 40.033474,60.133545 
	C35.644554,60.041660 33.692673,61.656078 33.759495,66.262283 
	C33.940517,78.741623 33.945385,91.227158 33.755035,103.706192 
	C33.691238,107.888832 35.273594,109.154144 39.319901,109.129036 
	C61.453720,108.991669 83.589485,108.975853 105.722939,109.139427 
	C109.997284,109.171013 111.086334,107.519890 111.025139,103.550545 
	C110.837868,91.404327 110.982239,79.253311 110.946068,67.104309 
	C110.928139,61.082561 110.096977,60.221828 103.941460,60.193539 
	C90.461220,60.131596 76.980522,60.170273 62.500011,60.167061 
M31.890415,119.054932 
	C58.037930,119.059547 84.185448,119.068634 110.332954,119.058266 
	C111.992928,119.057602 114.113770,119.511124 115.203979,118.681168 
	C116.812294,117.456802 117.686920,115.268692 118.874008,113.491005 
	C117.450821,112.720032 116.044647,111.321419 114.601624,111.282303 
	C106.613419,111.065750 98.616127,111.160202 90.622253,111.203621 
	C89.478310,111.209831 87.849777,111.091400 87.270065,111.753067 
	C82.748413,116.914024 76.773781,114.853264 71.328865,115.094788 
	C68.393669,115.224976 64.401894,115.723274 62.685135,114.124496 
	C59.054123,110.743004 55.161556,111.200523 51.092834,111.176666 
	C44.597816,111.138580 38.100624,111.081543 31.608128,111.215546 
	C29.353230,111.262093 26.072226,110.177956 25.930416,114.150528 
	C25.814529,117.396873 27.811289,118.939766 31.890415,119.054932 
M68.884888,111.112862 
	C67.365379,111.197960 65.845871,111.283066 64.326355,111.368172 
	C64.349548,111.732094 64.372734,112.096024 64.395927,112.459946 
	C70.406075,112.459946 76.416222,112.459946 82.426369,112.459946 
	C82.427574,112.010811 82.428780,111.561676 82.429985,111.112541 
	C78.212585,111.112541 73.995193,111.112541 68.884888,111.112862 
z"/>
<path fill="#D4D2D3" opacity="1.000000" stroke="none" 
	d="
M370.449341,29.473034 
	C371.740540,35.871956 372.914886,41.862247 374.089233,47.852539 
	C374.333069,47.834003 374.576904,47.815472 374.820740,47.796936 
	C374.820740,38.025284 374.820740,28.253630 374.820740,18.160534 
	C376.927765,18.160534 378.628815,18.160534 380.563721,18.160534 
	C380.563721,36.971981 380.563721,55.540871 380.563721,74.108032 
	C376.249268,75.127007 374.478729,73.110939 373.727631,69.427368 
	C372.143341,61.657513 370.450378,53.909813 368.118042,46.214520 
	C368.118042,55.401527 368.118042,64.588531 368.118042,74.137650 
	C366.035553,74.137650 364.308685,74.137650 362.282654,74.137650 
	C362.282654,55.481400 362.282654,36.909073 362.282654,18.240654 
	C366.349182,17.111929 368.731415,18.206438 369.118011,22.694757 
	C369.302551,24.836946 369.914246,26.942341 370.449341,29.473034 
z"/>
<path fill="#CECDCF" opacity="1.000000" stroke="none" 
	d="
M261.953949,17.793221 
	C272.858337,17.833517 274.027924,19.023613 274.029541,29.657188 
	C274.031342,41.304287 274.048187,52.951427 274.023224,64.598473 
	C274.006500,72.408356 272.071472,74.391777 264.367493,74.547791 
	C261.588593,74.604073 258.807587,74.556831 255.738129,74.556831 
	C255.738129,55.569027 255.738129,37.170727 255.738129,18.245029 
	C257.678986,18.093418 259.600525,17.943312 261.953949,17.793221 
M268.180756,34.545662 
	C268.180084,32.553028 268.056030,30.551235 268.203125,28.569571 
	C268.564331,23.703976 266.031464,22.929384 261.851288,23.937479 
	C261.851288,38.857861 261.851288,53.676357 261.851288,68.468605 
	C267.677124,68.833961 268.135712,68.502083 268.164307,63.430332 
	C268.216736,54.131672 268.180206,44.832508 268.180756,34.545662 
z"/>
<path fill="#D1D0D1" opacity="1.000000" stroke="none" 
	d="
M308.028137,63.927979 
	C310.432343,48.423847 312.800934,33.354267 315.163086,18.325483 
	C318.375519,17.404179 320.964935,17.461447 321.525116,21.098038 
	C324.227875,38.643417 326.815002,56.206604 329.505890,74.182518 
	C327.265045,74.182518 325.533630,74.182518 323.266357,74.182518 
	C321.773743,63.598953 320.265381,52.903717 318.757019,42.208481 
	C318.278748,42.199051 317.800446,42.189621 317.322174,42.180191 
	C315.876434,52.845753 314.430695,63.511318 312.964905,74.324745 
	C310.820038,74.324745 309.053253,74.324745 306.697205,74.324745 
	C307.153046,70.818779 307.572754,67.590660 308.028137,63.927979 
z"/>
<path fill="#D2D1D2" opacity="1.000000" stroke="none" 
	d="
M152.447510,71.226120 
	C149.647491,53.445335 146.996140,36.034184 144.334915,18.558167 
	C148.792892,16.599319 150.183701,18.727262 150.739822,22.513319 
	C152.154556,32.144943 153.687180,41.759254 156.250793,51.427467 
	C157.959763,40.495396 159.668747,29.563322 161.438736,18.240978 
	C163.215042,18.240978 164.903687,18.240978 167.213989,18.240978 
	C164.417755,36.933453 161.647720,55.450851 158.617798,75.705582 
	C156.079605,73.973221 154.337906,72.784485 152.447510,71.226120 
z"/>
<path fill="#CBCBCD" opacity="1.000000" stroke="none" 
	d="
M215.532501,68.781960 
	C217.607910,68.857872 219.222519,68.933647 220.943649,69.014427 
	C218.907593,74.969086 214.932129,76.053284 203.422821,73.862747 
	C203.422821,69.703430 203.422668,65.415321 203.422836,61.127216 
	C203.423340,48.295834 203.528168,35.463070 203.358505,22.633938 
	C203.310150,18.977129 204.413773,17.464411 208.196686,17.726030 
	C211.971909,17.987122 215.779297,17.783298 219.706070,17.783298 
	C219.435364,22.299927 217.038940,23.763729 213.425873,23.538572 
	C210.136276,23.333574 209.016083,24.709154 209.168045,27.932150 
	C209.377731,32.379368 209.220642,36.843880 209.220642,41.453217 
	C212.246994,41.692894 214.684906,41.885967 217.153152,42.081444 
	C216.106262,46.685204 216.062515,46.556309 211.861252,47.982056 
	C210.793716,48.344337 209.393265,49.781391 209.352341,50.774326 
	C209.114182,56.553806 209.235748,62.348106 209.235748,68.512871 
	C211.519684,68.618134 213.295700,68.699982 215.532501,68.781960 
z"/>
<path fill="#CECDCF" opacity="1.000000" stroke="none" 
	d="
M437.795776,118.812576 
	C437.757477,127.803902 436.199127,129.525909 429.299347,129.239548 
	C425.546204,129.083786 423.730469,127.124786 423.691803,123.661179 
	C423.573029,113.026962 423.568390,102.390015 423.667542,91.755516 
	C423.709473,87.259613 426.623169,85.945686 430.681976,85.937263 
	C435.144867,85.928009 437.683319,87.924294 437.742798,92.415924 
	C437.857178,101.056084 437.788574,109.698677 437.795776,118.812576 
M433.128693,104.511818 
	C433.122284,100.852158 433.325623,97.173363 432.994415,93.543335 
	C432.880280,92.292114 431.434052,91.162437 430.596283,89.977219 
	C429.737732,91.143974 428.160767,92.294815 428.134491,93.480026 
	C427.928253,102.791008 427.912445,112.111183 428.141327,121.421074 
	C428.172821,122.703026 429.871979,123.943985 430.799072,125.203911 
	C431.570892,123.961395 432.947479,122.748032 433.009003,121.471298 
	C433.264954,116.160225 433.124695,110.830063 433.128693,104.511818 
z"/>
<path fill="#D0CFD0" opacity="1.000000" stroke="none" 
	d="
M426.864807,34.029396 
	C426.864807,47.641846 426.864807,60.759933 426.864807,74.429161 
	C424.716736,74.333839 423.020111,74.258545 420.998474,74.168831 
	C420.998474,57.230949 420.998474,40.786762 420.998474,23.943298 
	C418.299988,23.704603 415.900818,23.492388 413.348480,23.266621 
	C412.074097,19.467215 412.870850,17.609005 417.256378,17.749973 
	C423.726868,17.957956 430.209015,17.803680 436.850159,17.803680 
	C436.791077,25.051584 430.928650,22.778271 426.864807,24.267820 
	C426.864807,27.290192 426.864807,30.412609 426.864807,34.029396 
z"/>
<path fill="#D3D2D3" opacity="1.000000" stroke="none" 
	d="
M350.550171,86.471382 
	C354.643158,86.520218 357.227509,88.054611 357.261780,91.995346 
	C357.367920,104.193184 357.300568,116.392532 357.300568,128.756897 
	C355.824707,128.827957 354.691223,128.882538 353.565430,128.936737 
	C353.033051,122.935410 352.545898,117.083473 351.881866,111.251694 
	C351.854736,111.013580 350.162323,110.965088 348.498138,110.716629 
	C348.498138,115.885612 348.553802,120.659248 348.479309,125.430840 
	C348.426208,128.833847 348.348114,128.832626 344.270874,128.543503 
	C344.270874,114.788185 344.270874,101.015831 344.270874,86.468414 
	C346.265137,86.468414 348.198730,86.468414 350.550171,86.471382 
M348.373047,95.840332 
	C348.373047,99.247513 348.373047,102.654694 348.373047,106.061874 
	C348.941864,106.358345 349.510712,106.654816 350.079529,106.951286 
	C351.073303,105.647369 352.664307,104.453560 352.929474,103.015297 
	C353.399506,100.466042 353.346985,97.726219 352.962982,95.148079 
	C352.721954,93.529663 351.477325,92.060715 350.683014,90.524712 
	C349.913422,92.005997 349.143829,93.487289 348.373047,95.840332 
z"/>
<path fill="#D2D1D2" opacity="1.000000" stroke="none" 
	d="
M157.085281,124.819733 
	C154.192078,130.944611 149.088684,128.517014 144.387970,128.963867 
	C144.387970,114.843948 144.387970,100.992683 144.387970,86.491257 
	C146.904068,86.491257 149.352097,86.371483 151.783813,86.519714 
	C155.311722,86.734764 157.418503,88.711792 157.292984,92.275513 
	C157.120590,97.171059 156.325897,102.051636 156.285858,106.942619 
	C156.255829,110.610146 157.098969,114.276833 157.352554,117.957726 
	C157.499924,120.096985 157.250946,122.263550 157.085281,124.819733 
M153.031860,102.911095 
	C153.036880,99.945778 153.362961,96.929527 152.904175,94.037796 
	C152.691879,92.699730 150.949081,91.604492 149.900146,90.399162 
	C149.493805,90.714531 149.087448,91.029907 148.681091,91.345284 
	C148.681091,96.030106 148.681091,100.714928 148.681091,106.621216 
	C150.616943,105.330528 151.782516,104.553413 153.031860,102.911095 
M152.663605,123.433456 
	C152.793259,119.989426 153.215042,116.518852 152.905701,113.114716 
	C152.785568,111.792671 151.014145,110.620674 149.994934,109.380325 
	C149.447433,109.676208 148.899933,109.972092 148.352432,110.267967 
	C148.352432,114.186707 148.157654,118.123611 148.519897,122.008575 
	C148.590729,122.768265 150.821106,123.326614 152.663605,123.433456 
z"/>
<path fill="#D0CFD0" opacity="1.000000" stroke="none" 
	d="
M231.086914,86.562500 
	C232.454941,87.630516 234.130402,88.615303 234.335419,89.845192 
	C236.463287,102.610352 238.354385,115.414978 240.321396,128.275040 
	C236.610168,129.935226 235.355591,128.643967 234.984848,125.165924 
	C234.296463,118.707962 233.299011,112.282944 232.430252,105.844208 
	C231.985001,105.891365 231.539764,105.938522 231.094513,105.985672 
	C230.051926,113.524239 229.009338,121.062805 227.941422,128.784470 
	C226.409363,128.784470 225.141068,128.784470 223.900879,128.784470 
	C223.707458,128.439758 223.387878,128.141602 223.423767,127.895248 
	C225.292526,115.071297 227.165085,102.247688 229.138062,89.439568 
	C229.292984,88.433792 230.170212,87.539284 231.086914,86.562500 
z"/>
<path fill="#CFCFD0" opacity="1.000000" stroke="none" 
	d="
M388.728851,115.860748 
	C388.073853,120.391869 387.487488,124.486847 386.884491,128.698029 
	C385.268890,128.698029 383.882019,128.698029 382.165649,128.698029 
	C384.162994,115.373024 386.069946,102.396164 388.121918,89.442284 
	C388.287170,88.399162 389.449219,87.513947 390.148071,86.555359 
	C391.205994,87.565956 392.991486,88.443451 393.204620,89.608589 
	C394.671478,97.627373 395.819641,105.704758 397.049957,113.766403 
	C397.795776,118.653336 398.505096,123.545837 399.230927,128.436691 
	C395.649750,129.736450 394.307587,128.756149 393.964386,125.377235 
	C393.285034,118.689079 392.253082,112.036743 391.366943,105.369591 
	C390.960419,105.378311 390.553894,105.387024 390.147369,105.395744 
	C389.697418,108.738701 389.247437,112.081657 388.728851,115.860748 
z"/>
<path fill="#D7D6D6" opacity="1.000000" stroke="none" 
	d="
M184.768875,92.273239 
	C184.975677,89.427345 183.810837,86.039932 189.017212,86.833168 
	C189.017212,92.732567 189.017212,98.617256 189.017212,104.735336 
	C191.218124,104.735336 192.795441,104.735336 194.781525,104.735336 
	C194.781525,98.791962 194.781525,93.024803 194.781525,87.257637 
	C195.279358,86.917786 195.777176,86.577942 196.275009,86.238091 
	C197.220917,87.433472 198.968460,88.615395 198.988800,89.826324 
	C199.192719,101.963799 199.182877,114.107140 198.991135,126.245010 
	C198.974182,127.317459 197.247345,128.362915 196.314697,129.420898 
	C195.838715,129.122269 195.362747,128.823639 194.886765,128.525024 
	C194.886765,123.736534 194.680084,118.936432 194.948318,114.163017 
	C195.188217,109.893585 193.455185,108.751778 189.218765,110.040115 
	C189.218765,116.000847 189.218765,122.101799 189.218765,128.200211 
	C185.349594,130.016342 184.714340,128.292252 184.738281,125.168556 
	C184.821106,114.358795 184.769333,103.548019 184.768875,92.273239 
z"/>
<path fill="#CFCECF" opacity="1.000000" stroke="none" 
	d="
M304.868408,99.019470 
	C304.868317,94.726562 304.868317,90.929916 304.868317,86.788773 
	C309.050018,86.788773 312.779968,86.788773 316.702332,86.788773 
	C316.482452,91.741646 312.471924,90.453865 309.501953,91.218643 
	C309.501953,95.347992 309.501953,99.426628 309.501953,103.874596 
	C311.237549,104.192398 313.088593,104.531334 314.939636,104.870277 
	C315.150452,105.270912 315.361298,105.671547 315.572144,106.072182 
	C313.705048,107.361931 311.837921,108.651680 309.401855,110.334450 
	C309.401855,114.175270 309.401855,118.936028 309.401855,124.156952 
	C312.185974,124.330925 314.770996,124.492462 317.375458,124.655205 
	C316.403107,129.512909 315.799561,129.712891 304.868500,128.634903 
	C304.868500,118.984657 304.868500,109.250198 304.868408,99.019470 
z"/>
<path fill="#C4C5C7" opacity="1.000000" stroke="none" 
	d="
M279.703247,125.068954 
	C278.418213,126.635071 277.069977,128.528976 275.388763,128.895523 
	C272.702606,129.481155 269.795319,129.052200 266.759033,129.052200 
	C266.520294,127.925293 266.158844,127.005882 266.155762,126.085274 
	C266.115570,114.129410 266.065704,102.172615 266.214081,90.218491 
	C266.229614,88.968422 267.493225,87.733833 268.177765,86.492065 
	C269.056213,87.778252 270.673218,89.050941 270.697021,90.352760 
	C270.899750,101.443108 270.813049,112.538742 270.813049,123.970284 
	C274.000549,124.242516 276.745575,124.476959 279.703247,125.068954 
z"/>
<path fill="#344657" opacity="1.000000" stroke="none" 
	d="
M63.000011,60.167458 
	C76.980522,60.170273 90.461220,60.131596 103.941460,60.193539 
	C110.096977,60.221828 110.928139,61.082561 110.946068,67.104309 
	C110.982239,79.253311 110.837868,91.404327 111.025139,103.550545 
	C111.086334,107.519890 109.997284,109.171013 105.722939,109.139427 
	C83.589485,108.975853 61.453720,108.991669 39.319901,109.129036 
	C35.273594,109.154144 33.691238,107.888832 33.755035,103.706192 
	C33.945385,91.227158 33.940517,78.741623 33.759495,66.262283 
	C33.692673,61.656078 35.644554,60.041660 40.033474,60.133545 
	C47.519276,60.290249 55.010857,60.170609 63.000011,60.167458 
M38.462368,65.159462 
	C38.234623,76.767021 38.101120,88.377617 37.727352,99.980469 
	C37.598774,103.972076 39.238663,105.109283 43.035973,105.083870 
	C62.666191,104.952492 82.298340,104.943741 101.928368,105.088303 
	C105.888992,105.117470 107.145462,103.671410 107.074318,99.830254 
	C106.889496,89.851791 106.788734,79.860275 107.112381,69.888840 
	C107.267807,65.100227 105.371086,63.977562 100.988716,64.016708 
	C82.024582,64.186150 63.058056,64.076942 44.092476,64.110893 
	C42.448269,64.113831 40.804615,64.422173 38.462368,65.159462 
z"/>
<path fill="#344656" opacity="1.000000" stroke="none" 
	d="
M31.436657,119.041931 
	C27.811289,118.939766 25.814529,117.396873 25.930416,114.150528 
	C26.072226,110.177956 29.353230,111.262093 31.608128,111.215546 
	C38.100624,111.081543 44.597816,111.138580 51.092834,111.176666 
	C55.161556,111.200523 59.054123,110.743004 62.685135,114.124496 
	C64.401894,115.723274 68.393669,115.224976 71.328865,115.094788 
	C76.773781,114.853264 82.748413,116.914024 87.270065,111.753067 
	C87.849777,111.091400 89.478310,111.209831 90.622253,111.203621 
	C98.616127,111.160202 106.613419,111.065750 114.601624,111.282303 
	C116.044647,111.321419 117.450821,112.720032 118.874008,113.491013 
	C117.686920,115.268692 116.812294,117.456802 115.203979,118.681168 
	C114.113770,119.511124 111.992928,119.057602 110.332954,119.058266 
	C84.185448,119.068634 58.037930,119.059547 31.436657,119.041931 
z"/>
<path fill="#394D50" opacity="1.000000" stroke="none" 
	d="
M69.331345,111.112701 
	C73.995193,111.112541 78.212585,111.112541 82.429985,111.112541 
	C82.428780,111.561676 82.427574,112.010811 82.426369,112.459946 
	C76.416222,112.459946 70.406075,112.459946 64.395927,112.459946 
	C64.372734,112.096024 64.349548,111.732094 64.326355,111.368172 
	C65.845871,111.283066 67.365379,111.197960 69.331345,111.112701 
z"/>
<path fill="#404F64" opacity="1.000000" stroke="none" 
	d="
M268.180786,35.039608 
	C268.180206,44.832508 268.216736,54.131672 268.164307,63.430332 
	C268.135712,68.502083 267.677124,68.833961 261.851288,68.468605 
	C261.851288,53.676357 261.851288,38.857861 261.851288,23.937479 
	C266.031464,22.929384 268.564331,23.703976 268.203125,28.569571 
	C268.056030,30.551235 268.180084,32.553028 268.180786,35.039608 
z"/>
<path fill="#33445A" opacity="1.000000" stroke="none" 
	d="
M433.129211,105.009361 
	C433.124695,110.830063 433.264954,116.160225 433.009003,121.471298 
	C432.947479,122.748032 431.570892,123.961395 430.799072,125.203918 
	C429.871979,123.943985 428.172821,122.703026 428.141327,121.421074 
	C427.912445,112.111183 427.928253,102.791008 428.134491,93.480026 
	C428.160767,92.294815 429.737732,91.143974 430.596313,89.977226 
	C431.434052,91.162437 432.880280,92.292114 432.994415,93.543335 
	C433.325623,97.173363 433.122284,100.852158 433.129211,105.009361 
z"/>
<path fill="#48576A" opacity="1.000000" stroke="none" 
	d="
M348.373657,95.404457 
	C349.143829,93.487289 349.913422,92.005997 350.682983,90.524704 
	C351.477325,92.060715 352.721954,93.529663 352.962982,95.148079 
	C353.346985,97.726219 353.399506,100.466042 352.929474,103.015297 
	C352.664307,104.453560 351.073303,105.647369 350.079529,106.951286 
	C349.510712,106.654816 348.941864,106.358345 348.373047,106.061874 
	C348.373047,102.654694 348.373047,99.247513 348.373657,95.404457 
z"/>
<path fill="#445367" opacity="1.000000" stroke="none" 
	d="
M152.989960,103.343697 
	C151.782516,104.553413 150.616943,105.330528 148.681091,106.621216 
	C148.681091,100.714928 148.681091,96.030106 148.681091,91.345284 
	C149.087448,91.029907 149.493805,90.714531 149.900146,90.399162 
	C150.949081,91.604492 152.691879,92.699730 152.904175,94.037796 
	C153.362961,96.929527 153.036880,99.945778 152.989960,103.343697 
z"/>
<path fill="#455467" opacity="1.000000" stroke="none" 
	d="
M152.359528,123.705643 
	C150.821106,123.326614 148.590729,122.768265 148.519897,122.008575 
	C148.157654,118.123611 148.352432,114.186707 148.352432,110.267967 
	C148.899933,109.972092 149.447433,109.676208 149.994934,109.380325 
	C151.014145,110.620674 152.785568,111.792671 152.905701,113.114716 
	C153.215042,116.518852 152.793259,119.989426 152.359528,123.705643 
z"/>
<path fill="#61841B" opacity="1.000000" stroke="none" 
	d="
M38.811535,64.874054 
	C40.804615,64.422173 42.448269,64.113831 44.092476,64.110893 
	C63.058056,64.076942 82.024582,64.186150 100.988716,64.016708 
	C105.371086,63.977562 107.267807,65.100227 107.112381,69.888840 
	C106.788734,79.860275 106.889496,89.851791 107.074318,99.830254 
	C107.145462,103.671410 105.888992,105.117470 101.928368,105.088303 
	C82.298340,104.943741 62.666191,104.952492 43.035973,105.083870 
	C39.238663,105.109283 37.598774,103.972076 37.727352,99.980469 
	C38.101120,88.377617 38.234623,76.767021 38.811535,64.874054 
M65.631073,83.029266 
	C70.109818,79.329880 67.496185,74.308922 67.869316,69.897110 
	C67.963768,68.780289 66.039909,67.492760 65.043488,66.283676 
	C64.054848,67.491165 62.117229,68.805992 62.239586,69.887825 
	C62.810993,74.939972 60.413551,78.063438 56.527435,80.595200 
	C52.846443,82.993309 50.377388,85.755898 53.260963,90.486610 
	C53.712280,91.227028 53.113285,93.092888 52.393913,93.894424 
	C51.898087,94.446884 49.864586,94.507545 49.396957,93.991608 
	C48.671608,93.191338 48.225403,91.599358 48.480244,90.540176 
	C49.763748,85.205574 51.585384,80.201164 56.973995,77.370094 
	C60.600319,75.464905 60.232460,71.841705 59.777611,68.520950 
	C59.666973,67.713242 58.154430,66.350883 57.664593,66.498466 
	C56.669495,66.798286 55.592625,67.807236 55.166088,68.791229 
	C54.469536,70.398125 54.730858,72.562408 53.758148,73.877853 
	C51.727943,76.623390 49.320793,79.165031 46.705242,81.356987 
	C45.926575,82.009544 43.938614,81.219109 42.504738,81.089836 
	C42.859276,79.809135 43.088406,78.470146 43.640842,77.281418 
	C43.818417,76.899307 44.888550,77.001305 45.482391,76.731987 
	C49.096512,75.092918 53.833614,73.658531 52.649670,68.669571 
	C51.515099,63.888653 46.779396,66.776642 43.685627,66.263794 
	C40.520393,65.739105 39.847565,67.952271 39.863346,70.654640 
	C39.917850,79.985718 39.957390,89.318100 39.850391,98.648239 
	C39.813133,101.897423 41.158241,103.011528 44.327499,102.997681 
	C62.990009,102.916100 81.653419,102.901756 100.315628,103.014015 
	C103.766197,103.034767 105.055878,101.826485 104.983269,98.367073 
	C104.822472,90.705406 104.941681,83.037926 104.940857,75.372818 
	C104.939789,65.456871 104.888527,65.363396 94.891159,66.242744 
	C93.607590,66.355644 91.456787,67.234100 91.356171,67.980217 
	C91.140305,69.580856 91.456131,72.008759 92.534882,72.870804 
	C94.765968,74.653687 97.705223,75.520668 100.212746,77.002106 
	C101.205002,77.588318 102.121155,78.706482 102.485786,79.781281 
	C102.667297,80.316322 101.592003,81.883102 100.968681,81.953674 
	C99.840126,82.081451 98.031326,81.818550 97.541077,81.054733 
	C94.366081,76.108009 87.319534,73.963448 87.154671,66.841034 
	C87.153717,66.800110 86.550858,66.773132 86.228195,66.748131 
	C83.769997,71.173134 83.961792,75.387566 87.448112,77.599434 
	C92.019348,80.499611 95.542366,83.817032 95.688629,89.575645 
	C95.726257,91.057220 95.643066,92.618874 95.160439,93.982750 
	C95.039047,94.325790 92.314896,94.294037 92.232758,94.012566 
	C91.822151,92.605553 91.390831,90.855980 91.896164,89.601128 
	C93.030922,86.783264 93.331711,84.284393 90.437317,82.634377 
	C85.092239,79.587273 80.841942,76.092163 82.018723,68.985207 
	C82.139236,68.257401 80.311569,66.397072 79.781677,66.538429 
	C78.643913,66.841919 77.022415,68.021873 76.907227,68.997452 
	C76.440071,72.954254 76.333191,76.971687 76.396881,80.961906 
	C76.415634,82.136955 77.122520,83.808273 78.049393,84.372093 
	C81.695793,86.590233 82.920860,90.103203 83.578568,93.885612 
	C83.821335,95.281784 83.424400,96.916656 82.853127,98.241707 
	C82.700890,98.594803 80.178406,98.588707 79.876381,98.077972 
	C79.227730,96.981071 78.714066,95.146187 79.214005,94.149666 
	C80.814400,90.959656 79.533989,89.069092 77.458618,86.670708 
	C75.789696,84.742035 74.681015,81.957535 74.271835,79.401039 
	C73.725288,75.986267 74.217880,72.416466 73.982063,68.932335 
	C73.926773,68.115494 72.739677,67.375252 72.073296,66.599770 
	C71.479561,67.289940 70.696892,67.897507 70.348312,68.694855 
	C70.035995,69.409233 70.008965,70.376358 70.186356,71.156906 
	C71.875824,78.590813 68.435242,84.136208 63.527245,89.056046 
	C62.743092,89.842094 61.237915,90.242447 60.089073,90.199898 
	C59.449657,90.176224 58.236736,88.710724 58.374134,88.175110 
	C58.657127,87.071915 59.475384,85.842575 60.434540,85.239624 
	C61.787491,84.389099 63.467892,84.059471 65.631073,83.029266 
z"/>
<path fill="#344557" opacity="1.000000" stroke="none" 
	d="
M65.319687,83.268204 
	C63.467892,84.059471 61.787491,84.389099 60.434540,85.239624 
	C59.475384,85.842575 58.657127,87.071915 58.374134,88.175110 
	C58.236736,88.710724 59.449657,90.176224 60.089073,90.199898 
	C61.237915,90.242447 62.743092,89.842094 63.527245,89.056046 
	C68.435242,84.136208 71.875824,78.590813 70.186356,71.156906 
	C70.008965,70.376358 70.035995,69.409233 70.348312,68.694855 
	C70.696892,67.897507 71.479561,67.289940 72.073296,66.599770 
	C72.739677,67.375252 73.926773,68.115494 73.982063,68.932335 
	C74.217880,72.416466 73.725288,75.986267 74.271835,79.401039 
	C74.681015,81.957535 75.789696,84.742035 77.458618,86.670708 
	C79.533989,89.069092 80.814400,90.959656 79.214005,94.149666 
	C78.714066,95.146187 79.227730,96.981071 79.876381,98.077972 
	C80.178406,98.588707 82.700890,98.594803 82.853127,98.241707 
	C83.424400,96.916656 83.821335,95.281784 83.578568,93.885612 
	C82.920860,90.103203 81.695793,86.590233 78.049393,84.372093 
	C77.122520,83.808273 76.415634,82.136955 76.396881,80.961906 
	C76.333191,76.971687 76.440071,72.954254 76.907227,68.997452 
	C77.022415,68.021873 78.643913,66.841919 79.781677,66.538429 
	C80.311569,66.397072 82.139236,68.257401 82.018723,68.985207 
	C80.841942,76.092163 85.092239,79.587273 90.437317,82.634377 
	C93.331711,84.284393 93.030922,86.783264 91.896164,89.601128 
	C91.390831,90.855980 91.822151,92.605553 92.232758,94.012566 
	C92.314896,94.294037 95.039047,94.325790 95.160439,93.982750 
	C95.643066,92.618874 95.726257,91.057220 95.688629,89.575645 
	C95.542366,83.817032 92.019348,80.499611 87.448112,77.599434 
	C83.961792,75.387566 83.769997,71.173134 86.228638,66.743881 
	C86.550858,66.773132 87.153717,66.800110 87.154671,66.841034 
	C87.319534,73.963448 94.366081,76.108009 97.541077,81.054733 
	C98.031326,81.818550 99.840126,82.081451 100.968681,81.953674 
	C101.592003,81.883102 102.667297,80.316322 102.485786,79.781281 
	C102.121155,78.706482 101.205002,77.588318 100.212746,77.002106 
	C97.705223,75.520668 94.765968,74.653687 92.534882,72.870804 
	C91.456131,72.008759 91.140305,69.580856 91.356171,67.980217 
	C91.456787,67.234100 93.607590,66.355644 94.891159,66.242744 
	C104.888527,65.363396 104.939789,65.456871 104.940857,75.372818 
	C104.941681,83.037926 104.822472,90.705406 104.983269,98.367073 
	C105.055878,101.826485 103.766197,103.034767 100.315628,103.014015 
	C81.653419,102.901756 62.990009,102.916100 44.327499,102.997681 
	C41.158241,103.011528 39.813133,101.897423 39.850391,98.648239 
	C39.957390,89.318100 39.917850,79.985718 39.863346,70.654640 
	C39.847565,67.952271 40.520393,65.739105 43.685627,66.263794 
	C46.779396,66.776642 51.515099,63.888653 52.649670,68.669571 
	C53.833614,73.658531 49.096512,75.092918 45.482391,76.731987 
	C44.888550,77.001305 43.818417,76.899307 43.640842,77.281418 
	C43.088406,78.470146 42.859276,79.809135 42.504738,81.089836 
	C43.938614,81.219109 45.926575,82.009544 46.705242,81.356987 
	C49.320793,79.165031 51.727943,76.623390 53.758148,73.877853 
	C54.730858,72.562408 54.469536,70.398125 55.166088,68.791229 
	C55.592625,67.807236 56.669495,66.798286 57.664593,66.498466 
	C58.154430,66.350883 59.666973,67.713242 59.777611,68.520950 
	C60.232460,71.841705 60.600319,75.464905 56.973995,77.370094 
	C51.585384,80.201164 49.763748,85.205574 48.480244,90.540176 
	C48.225403,91.599358 48.671608,93.191338 49.396957,93.991608 
	C49.864586,94.507545 51.898087,94.446884 52.393913,93.894424 
	C53.113285,93.092888 53.712280,91.227028 53.260963,90.486610 
	C50.377388,85.755898 52.846443,82.993309 56.527435,80.595200 
	C60.413551,78.063438 62.810993,74.939972 62.239586,69.887825 
	C62.117229,68.805992 64.054848,67.491165 65.043488,66.283676 
	C66.039909,67.492760 67.963768,68.780289 67.869316,69.897110 
	C67.496185,74.308922 70.109818,79.329880 65.319687,83.268204 
z"/>
</svg>